<svg width="300" height="120" xmlns="http://www.w3.org/2000/svg">
  <defs>
    <linearGradient id="gradient" x1="0%" y1="0%" x2="100%" y2="0%">
      <stop offset="0%" stop-color="#E0D6FF" />
      <stop offset="50%" stop-color="#FFD6E0" />
      <stop offset="100%" stop-color="#C1F0DB" />
    </linearGradient>
  </defs>
  
  <!-- Logo text -->
  <text x="150" y="70" font-family="Arial, sans-serif" font-weight="bold" font-size="40" fill="url(#gradient)" text-anchor="middle">Cognimates</text>
  
  <!-- Tagline -->
  <text x="150" y="95" font-family="Arial, sans-serif" font-size="16" fill="#666" text-anchor="middle">AI Education Platform</text>
  
  <!-- Stylized brain icon -->
  <path d="M50,30 C40,30 35,40 35,45 C35,55 45,60 50,60 C55,60 65,55 65,45 C65,40 60,30 50,30 Z" fill="none" stroke="#E0D6FF" stroke-width="3" />
  <path d="M250,30 C240,30 235,40 235,45 C235,55 245,60 250,60 C255,60 265,55 265,45 C265,40 260,30 250,30 Z" fill="none" stroke="#FFD6E0" stroke-width="3" />
</svg>